<?xml version="1.0" encoding="utf-8" standalone="no"?>
<!DOCTYPE svg PUBLIC "-//W3C//DTD SVG 1.1//EN"
  "http://www.w3.org/Graphics/SVG/1.1/DTD/svg11.dtd">
<svg xmlns:xlink="http://www.w3.org/1999/xlink" width="430.233696pt" height="122.296462pt" viewBox="0 0 430.233696 122.296462" xmlns="http://www.w3.org/2000/svg" version="1.1">
 <metadata>
  <rdf:RDF xmlns:dc="http://purl.org/dc/elements/1.1/" xmlns:cc="http://creativecommons.org/ns#" xmlns:rdf="http://www.w3.org/1999/02/22-rdf-syntax-ns#">
   <cc:Work>
    <dc:type rdf:resource="http://purl.org/dc/dcmitype/StillImage"/>
    <dc:date>2023-05-18T08:35:35.456445</dc:date>
    <dc:format>image/svg+xml</dc:format>
    <dc:creator>
     <cc:Agent>
      <dc:title>Matplotlib v3.6.2, https://matplotlib.org/</dc:title>
     </cc:Agent>
    </dc:creator>
   </cc:Work>
  </rdf:RDF>
 </metadata>
 <defs>
  <style type="text/css">*{stroke-linejoin: round; stroke-linecap: butt}</style>
 </defs>
 <g id="figure_1">
  <g id="patch_1">
   <path d="M 0 122.296462 
L 430.233696 122.296462 
L 430.233696 0 
L 0 0 
L 0 122.296462 
z
" style="fill: none"/>
  </g>
  <g id="axes_1">
   <g id="patch_2">
    <path d="M 29.626875 97.027087 
L 425.059946 97.027087 
L 425.059946 0.72 
L 29.626875 0.72 
z
" style="fill: #ffffff"/>
   </g>
   <g id="matplotlib.axis_1">
    <g id="xtick_1">
     <g id="line2d_1">
      <path d="M 55.98908 97.027087 
L 55.98908 0.72 
" clip-path="url(#pa083cf93aa)" style="fill: none; stroke: #b0b0b0; stroke-width: 0.5; stroke-linecap: square"/>
     </g>
     <g id="line2d_2">
      <defs>
       <path id="m43f99564e6" d="M 0 0 
L 0 3.5 
" style="stroke: #000000; stroke-width: 0.8"/>
      </defs>
      <g>
       <use xlink:href="#m43f99564e6" x="55.98908" y="97.027087" style="stroke: #000000; stroke-width: 0.8"/>
      </g>
     </g>
     <g id="text_1">
      <!-- −4 -->
      <g transform="translate(50.829314 109.345993) scale(0.07 -0.07)">
       <defs>
        <path id="DejaVuSans-2212" d="M 678 2272 
L 4684 2272 
L 4684 1741 
L 678 1741 
L 678 2272 
z
" transform="scale(0.015625)"/>
        <path id="DejaVuSans-34" d="M 2419 4116 
L 825 1625 
L 2419 1625 
L 2419 4116 
z
M 2253 4666 
L 3047 4666 
L 3047 1625 
L 3713 1625 
L 3713 1100 
L 3047 1100 
L 3047 0 
L 2419 0 
L 2419 1100 
L 313 1100 
L 313 1709 
L 2253 4666 
z
" transform="scale(0.015625)"/>
       </defs>
       <use xlink:href="#DejaVuSans-2212"/>
       <use xlink:href="#DejaVuSans-34" x="83.789062"/>
      </g>
     </g>
    </g>
    <g id="xtick_2">
     <g id="line2d_3">
      <path d="M 108.713489 97.027087 
L 108.713489 0.72 
" clip-path="url(#pa083cf93aa)" style="fill: none; stroke: #b0b0b0; stroke-width: 0.5; stroke-linecap: square"/>
     </g>
     <g id="line2d_4">
      <g>
       <use xlink:href="#m43f99564e6" x="108.713489" y="97.027087" style="stroke: #000000; stroke-width: 0.8"/>
      </g>
     </g>
     <g id="text_2">
      <!-- −2 -->
      <g transform="translate(103.553724 109.345993) scale(0.07 -0.07)">
       <defs>
        <path id="DejaVuSans-32" d="M 1228 531 
L 3431 531 
L 3431 0 
L 469 0 
L 469 531 
Q 828 903 1448 1529 
Q 2069 2156 2228 2338 
Q 2531 2678 2651 2914 
Q 2772 3150 2772 3378 
Q 2772 3750 2511 3984 
Q 2250 4219 1831 4219 
Q 1534 4219 1204 4116 
Q 875 4013 500 3803 
L 500 4441 
Q 881 4594 1212 4672 
Q 1544 4750 1819 4750 
Q 2544 4750 2975 4387 
Q 3406 4025 3406 3419 
Q 3406 3131 3298 2873 
Q 3191 2616 2906 2266 
Q 2828 2175 2409 1742 
Q 1991 1309 1228 531 
z
" transform="scale(0.015625)"/>
       </defs>
       <use xlink:href="#DejaVuSans-2212"/>
       <use xlink:href="#DejaVuSans-32" x="83.789062"/>
      </g>
     </g>
    </g>
    <g id="xtick_3">
     <g id="line2d_5">
      <path d="M 161.437899 97.027087 
L 161.437899 0.72 
" clip-path="url(#pa083cf93aa)" style="fill: none; stroke: #b0b0b0; stroke-width: 0.5; stroke-linecap: square"/>
     </g>
     <g id="line2d_6">
      <g>
       <use xlink:href="#m43f99564e6" x="161.437899" y="97.027087" style="stroke: #000000; stroke-width: 0.8"/>
      </g>
     </g>
     <g id="text_3">
      <!-- 0 -->
      <g transform="translate(159.211024 109.345993) scale(0.07 -0.07)">
       <defs>
        <path id="DejaVuSans-30" d="M 2034 4250 
Q 1547 4250 1301 3770 
Q 1056 3291 1056 2328 
Q 1056 1369 1301 889 
Q 1547 409 2034 409 
Q 2525 409 2770 889 
Q 3016 1369 3016 2328 
Q 3016 3291 2770 3770 
Q 2525 4250 2034 4250 
z
M 2034 4750 
Q 2819 4750 3233 4129 
Q 3647 3509 3647 2328 
Q 3647 1150 3233 529 
Q 2819 -91 2034 -91 
Q 1250 -91 836 529 
Q 422 1150 422 2328 
Q 422 3509 836 4129 
Q 1250 4750 2034 4750 
z
" transform="scale(0.015625)"/>
       </defs>
       <use xlink:href="#DejaVuSans-30"/>
      </g>
     </g>
    </g>
    <g id="xtick_4">
     <g id="line2d_7">
      <path d="M 214.162308 97.027087 
L 214.162308 0.72 
" clip-path="url(#pa083cf93aa)" style="fill: none; stroke: #b0b0b0; stroke-width: 0.5; stroke-linecap: square"/>
     </g>
     <g id="line2d_8">
      <g>
       <use xlink:href="#m43f99564e6" x="214.162308" y="97.027087" style="stroke: #000000; stroke-width: 0.8"/>
      </g>
     </g>
     <g id="text_4">
      <!-- 2 -->
      <g transform="translate(211.935433 109.345993) scale(0.07 -0.07)">
       <use xlink:href="#DejaVuSans-32"/>
      </g>
     </g>
    </g>
    <g id="xtick_5">
     <g id="line2d_9">
      <path d="M 266.886718 97.027087 
L 266.886718 0.72 
" clip-path="url(#pa083cf93aa)" style="fill: none; stroke: #b0b0b0; stroke-width: 0.5; stroke-linecap: square"/>
     </g>
     <g id="line2d_10">
      <g>
       <use xlink:href="#m43f99564e6" x="266.886718" y="97.027087" style="stroke: #000000; stroke-width: 0.8"/>
      </g>
     </g>
     <g id="text_5">
      <!-- 4 -->
      <g transform="translate(264.659843 109.345993) scale(0.07 -0.07)">
       <use xlink:href="#DejaVuSans-34"/>
      </g>
     </g>
    </g>
    <g id="xtick_6">
     <g id="line2d_11">
      <path d="M 319.611127 97.027087 
L 319.611127 0.72 
" clip-path="url(#pa083cf93aa)" style="fill: none; stroke: #b0b0b0; stroke-width: 0.5; stroke-linecap: square"/>
     </g>
     <g id="line2d_12">
      <g>
       <use xlink:href="#m43f99564e6" x="319.611127" y="97.027087" style="stroke: #000000; stroke-width: 0.8"/>
      </g>
     </g>
     <g id="text_6">
      <!-- 6 -->
      <g transform="translate(317.384252 109.345993) scale(0.07 -0.07)">
       <defs>
        <path id="DejaVuSans-36" d="M 2113 2584 
Q 1688 2584 1439 2293 
Q 1191 2003 1191 1497 
Q 1191 994 1439 701 
Q 1688 409 2113 409 
Q 2538 409 2786 701 
Q 3034 994 3034 1497 
Q 3034 2003 2786 2293 
Q 2538 2584 2113 2584 
z
M 3366 4563 
L 3366 3988 
Q 3128 4100 2886 4159 
Q 2644 4219 2406 4219 
Q 1781 4219 1451 3797 
Q 1122 3375 1075 2522 
Q 1259 2794 1537 2939 
Q 1816 3084 2150 3084 
Q 2853 3084 3261 2657 
Q 3669 2231 3669 1497 
Q 3669 778 3244 343 
Q 2819 -91 2113 -91 
Q 1303 -91 875 529 
Q 447 1150 447 2328 
Q 447 3434 972 4092 
Q 1497 4750 2381 4750 
Q 2619 4750 2861 4703 
Q 3103 4656 3366 4563 
z
" transform="scale(0.015625)"/>
       </defs>
       <use xlink:href="#DejaVuSans-36"/>
      </g>
     </g>
    </g>
    <g id="xtick_7">
     <g id="line2d_13">
      <path d="M 372.335536 97.027087 
L 372.335536 0.72 
" clip-path="url(#pa083cf93aa)" style="fill: none; stroke: #b0b0b0; stroke-width: 0.5; stroke-linecap: square"/>
     </g>
     <g id="line2d_14">
      <g>
       <use xlink:href="#m43f99564e6" x="372.335536" y="97.027087" style="stroke: #000000; stroke-width: 0.8"/>
      </g>
     </g>
     <g id="text_7">
      <!-- 8 -->
      <g transform="translate(370.108661 109.345993) scale(0.07 -0.07)">
       <defs>
        <path id="DejaVuSans-38" d="M 2034 2216 
Q 1584 2216 1326 1975 
Q 1069 1734 1069 1313 
Q 1069 891 1326 650 
Q 1584 409 2034 409 
Q 2484 409 2743 651 
Q 3003 894 3003 1313 
Q 3003 1734 2745 1975 
Q 2488 2216 2034 2216 
z
M 1403 2484 
Q 997 2584 770 2862 
Q 544 3141 544 3541 
Q 544 4100 942 4425 
Q 1341 4750 2034 4750 
Q 2731 4750 3128 4425 
Q 3525 4100 3525 3541 
Q 3525 3141 3298 2862 
Q 3072 2584 2669 2484 
Q 3125 2378 3379 2068 
Q 3634 1759 3634 1313 
Q 3634 634 3220 271 
Q 2806 -91 2034 -91 
Q 1263 -91 848 271 
Q 434 634 434 1313 
Q 434 1759 690 2068 
Q 947 2378 1403 2484 
z
M 1172 3481 
Q 1172 3119 1398 2916 
Q 1625 2713 2034 2713 
Q 2441 2713 2670 2916 
Q 2900 3119 2900 3481 
Q 2900 3844 2670 4047 
Q 2441 4250 2034 4250 
Q 1625 4250 1398 4047 
Q 1172 3844 1172 3481 
z
" transform="scale(0.015625)"/>
       </defs>
       <use xlink:href="#DejaVuSans-38"/>
      </g>
     </g>
    </g>
    <g id="xtick_8">
     <g id="line2d_15">
      <path d="M 425.059946 97.027087 
L 425.059946 0.72 
" clip-path="url(#pa083cf93aa)" style="fill: none; stroke: #b0b0b0; stroke-width: 0.5; stroke-linecap: square"/>
     </g>
     <g id="line2d_16">
      <g>
       <use xlink:href="#m43f99564e6" x="425.059946" y="97.027087" style="stroke: #000000; stroke-width: 0.8"/>
      </g>
     </g>
     <g id="text_8">
      <!-- 10 -->
      <g transform="translate(420.606196 109.345993) scale(0.07 -0.07)">
       <defs>
        <path id="DejaVuSans-31" d="M 794 531 
L 1825 531 
L 1825 4091 
L 703 3866 
L 703 4441 
L 1819 4666 
L 2450 4666 
L 2450 531 
L 3481 531 
L 3481 0 
L 794 0 
L 794 531 
z
" transform="scale(0.015625)"/>
       </defs>
       <use xlink:href="#DejaVuSans-31"/>
       <use xlink:href="#DejaVuSans-30" x="63.623047"/>
      </g>
     </g>
    </g>
    <g id="text_9">
     <!-- time [d] -->
     <g transform="translate(213.370754 120.12068) scale(0.07 -0.07)">
      <defs>
       <path id="DejaVuSans-74" d="M 1172 4494 
L 1172 3500 
L 2356 3500 
L 2356 3053 
L 1172 3053 
L 1172 1153 
Q 1172 725 1289 603 
Q 1406 481 1766 481 
L 2356 481 
L 2356 0 
L 1766 0 
Q 1100 0 847 248 
Q 594 497 594 1153 
L 594 3053 
L 172 3053 
L 172 3500 
L 594 3500 
L 594 4494 
L 1172 4494 
z
" transform="scale(0.015625)"/>
       <path id="DejaVuSans-69" d="M 603 3500 
L 1178 3500 
L 1178 0 
L 603 0 
L 603 3500 
z
M 603 4863 
L 1178 4863 
L 1178 4134 
L 603 4134 
L 603 4863 
z
" transform="scale(0.015625)"/>
       <path id="DejaVuSans-6d" d="M 3328 2828 
Q 3544 3216 3844 3400 
Q 4144 3584 4550 3584 
Q 5097 3584 5394 3201 
Q 5691 2819 5691 2113 
L 5691 0 
L 5113 0 
L 5113 2094 
Q 5113 2597 4934 2840 
Q 4756 3084 4391 3084 
Q 3944 3084 3684 2787 
Q 3425 2491 3425 1978 
L 3425 0 
L 2847 0 
L 2847 2094 
Q 2847 2600 2669 2842 
Q 2491 3084 2119 3084 
Q 1678 3084 1418 2786 
Q 1159 2488 1159 1978 
L 1159 0 
L 581 0 
L 581 3500 
L 1159 3500 
L 1159 2956 
Q 1356 3278 1631 3431 
Q 1906 3584 2284 3584 
Q 2666 3584 2933 3390 
Q 3200 3197 3328 2828 
z
" transform="scale(0.015625)"/>
       <path id="DejaVuSans-65" d="M 3597 1894 
L 3597 1613 
L 953 1613 
Q 991 1019 1311 708 
Q 1631 397 2203 397 
Q 2534 397 2845 478 
Q 3156 559 3463 722 
L 3463 178 
Q 3153 47 2828 -22 
Q 2503 -91 2169 -91 
Q 1331 -91 842 396 
Q 353 884 353 1716 
Q 353 2575 817 3079 
Q 1281 3584 2069 3584 
Q 2775 3584 3186 3129 
Q 3597 2675 3597 1894 
z
M 3022 2063 
Q 3016 2534 2758 2815 
Q 2500 3097 2075 3097 
Q 1594 3097 1305 2825 
Q 1016 2553 972 2059 
L 3022 2063 
z
" transform="scale(0.015625)"/>
       <path id="DejaVuSans-20" transform="scale(0.015625)"/>
       <path id="DejaVuSans-5b" d="M 550 4863 
L 1875 4863 
L 1875 4416 
L 1125 4416 
L 1125 -397 
L 1875 -397 
L 1875 -844 
L 550 -844 
L 550 4863 
z
" transform="scale(0.015625)"/>
       <path id="DejaVuSans-64" d="M 2906 2969 
L 2906 4863 
L 3481 4863 
L 3481 0 
L 2906 0 
L 2906 525 
Q 2725 213 2448 61 
Q 2172 -91 1784 -91 
Q 1150 -91 751 415 
Q 353 922 353 1747 
Q 353 2572 751 3078 
Q 1150 3584 1784 3584 
Q 2172 3584 2448 3432 
Q 2725 3281 2906 2969 
z
M 947 1747 
Q 947 1113 1208 752 
Q 1469 391 1925 391 
Q 2381 391 2643 752 
Q 2906 1113 2906 1747 
Q 2906 2381 2643 2742 
Q 2381 3103 1925 3103 
Q 1469 3103 1208 2742 
Q 947 2381 947 1747 
z
" transform="scale(0.015625)"/>
       <path id="DejaVuSans-5d" d="M 1947 4863 
L 1947 -844 
L 622 -844 
L 622 -397 
L 1369 -397 
L 1369 4416 
L 622 4416 
L 622 4863 
L 1947 4863 
z
" transform="scale(0.015625)"/>
      </defs>
      <use xlink:href="#DejaVuSans-74"/>
      <use xlink:href="#DejaVuSans-69" x="39.208984"/>
      <use xlink:href="#DejaVuSans-6d" x="66.992188"/>
      <use xlink:href="#DejaVuSans-65" x="164.404297"/>
      <use xlink:href="#DejaVuSans-20" x="225.927734"/>
      <use xlink:href="#DejaVuSans-5b" x="257.714844"/>
      <use xlink:href="#DejaVuSans-64" x="296.728516"/>
      <use xlink:href="#DejaVuSans-5d" x="360.205078"/>
     </g>
    </g>
   </g>
   <g id="matplotlib.axis_2">
    <g id="ytick_1">
     <g id="line2d_17">
      <path d="M 29.626875 86.653296 
L 425.059946 86.653296 
" clip-path="url(#pa083cf93aa)" style="fill: none; stroke: #b0b0b0; stroke-width: 0.5; stroke-linecap: square"/>
     </g>
     <g id="line2d_18">
      <defs>
       <path id="m5608a34078" d="M 0 0 
L -3.5 0 
" style="stroke: #000000; stroke-width: 0.8"/>
      </defs>
      <g>
       <use xlink:href="#m5608a34078" x="29.626875" y="86.653296" style="stroke: #000000; stroke-width: 0.8"/>
      </g>
     </g>
     <g id="text_10">
      <!-- 0.9 -->
      <g transform="translate(11.494688 89.312749) scale(0.07 -0.07)">
       <defs>
        <path id="DejaVuSans-2e" d="M 684 794 
L 1344 794 
L 1344 0 
L 684 0 
L 684 794 
z
" transform="scale(0.015625)"/>
        <path id="DejaVuSans-39" d="M 703 97 
L 703 672 
Q 941 559 1184 500 
Q 1428 441 1663 441 
Q 2288 441 2617 861 
Q 2947 1281 2994 2138 
Q 2813 1869 2534 1725 
Q 2256 1581 1919 1581 
Q 1219 1581 811 2004 
Q 403 2428 403 3163 
Q 403 3881 828 4315 
Q 1253 4750 1959 4750 
Q 2769 4750 3195 4129 
Q 3622 3509 3622 2328 
Q 3622 1225 3098 567 
Q 2575 -91 1691 -91 
Q 1453 -91 1209 -44 
Q 966 3 703 97 
z
M 1959 2075 
Q 2384 2075 2632 2365 
Q 2881 2656 2881 3163 
Q 2881 3666 2632 3958 
Q 2384 4250 1959 4250 
Q 1534 4250 1286 3958 
Q 1038 3666 1038 3163 
Q 1038 2656 1286 2365 
Q 1534 2075 1959 2075 
z
" transform="scale(0.015625)"/>
       </defs>
       <use xlink:href="#DejaVuSans-30"/>
       <use xlink:href="#DejaVuSans-2e" x="63.623047"/>
       <use xlink:href="#DejaVuSans-39" x="95.410156"/>
      </g>
     </g>
    </g>
    <g id="ytick_2">
     <g id="line2d_19">
      <path d="M 29.626875 59.28013 
L 425.059946 59.28013 
" clip-path="url(#pa083cf93aa)" style="fill: none; stroke: #b0b0b0; stroke-width: 0.5; stroke-linecap: square"/>
     </g>
     <g id="line2d_20">
      <g>
       <use xlink:href="#m5608a34078" x="29.626875" y="59.28013" style="stroke: #000000; stroke-width: 0.8"/>
      </g>
     </g>
     <g id="text_11">
      <!-- 1.0 -->
      <g transform="translate(11.494688 61.939583) scale(0.07 -0.07)">
       <use xlink:href="#DejaVuSans-31"/>
       <use xlink:href="#DejaVuSans-2e" x="63.623047"/>
       <use xlink:href="#DejaVuSans-30" x="95.410156"/>
      </g>
     </g>
    </g>
    <g id="ytick_3">
     <g id="line2d_21">
      <path d="M 29.626875 31.906964 
L 425.059946 31.906964 
" clip-path="url(#pa083cf93aa)" style="fill: none; stroke: #b0b0b0; stroke-width: 0.5; stroke-linecap: square"/>
     </g>
     <g id="line2d_22">
      <g>
       <use xlink:href="#m5608a34078" x="29.626875" y="31.906964" style="stroke: #000000; stroke-width: 0.8"/>
      </g>
     </g>
     <g id="text_12">
      <!-- 1.1 -->
      <g transform="translate(11.494688 34.566417) scale(0.07 -0.07)">
       <use xlink:href="#DejaVuSans-31"/>
       <use xlink:href="#DejaVuSans-2e" x="63.623047"/>
       <use xlink:href="#DejaVuSans-31" x="95.410156"/>
      </g>
     </g>
    </g>
    <g id="ytick_4">
     <g id="line2d_23">
      <path d="M 29.626875 4.533798 
L 425.059946 4.533798 
" clip-path="url(#pa083cf93aa)" style="fill: none; stroke: #b0b0b0; stroke-width: 0.5; stroke-linecap: square"/>
     </g>
     <g id="line2d_24">
      <g>
       <use xlink:href="#m5608a34078" x="29.626875" y="4.533798" style="stroke: #000000; stroke-width: 0.8"/>
      </g>
     </g>
     <g id="text_13">
      <!-- 1.2 -->
      <g transform="translate(11.494688 7.193251) scale(0.07 -0.07)">
       <use xlink:href="#DejaVuSans-31"/>
       <use xlink:href="#DejaVuSans-2e" x="63.623047"/>
       <use xlink:href="#DejaVuSans-32" x="95.410156"/>
      </g>
     </g>
    </g>
    <g id="text_14">
     <!-- relative flux -->
     <g transform="translate(6.038906 69.680496) rotate(-90) scale(0.07 -0.07)">
      <defs>
       <path id="DejaVuSans-72" d="M 2631 2963 
Q 2534 3019 2420 3045 
Q 2306 3072 2169 3072 
Q 1681 3072 1420 2755 
Q 1159 2438 1159 1844 
L 1159 0 
L 581 0 
L 581 3500 
L 1159 3500 
L 1159 2956 
Q 1341 3275 1631 3429 
Q 1922 3584 2338 3584 
Q 2397 3584 2469 3576 
Q 2541 3569 2628 3553 
L 2631 2963 
z
" transform="scale(0.015625)"/>
       <path id="DejaVuSans-6c" d="M 603 4863 
L 1178 4863 
L 1178 0 
L 603 0 
L 603 4863 
z
" transform="scale(0.015625)"/>
       <path id="DejaVuSans-61" d="M 2194 1759 
Q 1497 1759 1228 1600 
Q 959 1441 959 1056 
Q 959 750 1161 570 
Q 1363 391 1709 391 
Q 2188 391 2477 730 
Q 2766 1069 2766 1631 
L 2766 1759 
L 2194 1759 
z
M 3341 1997 
L 3341 0 
L 2766 0 
L 2766 531 
Q 2569 213 2275 61 
Q 1981 -91 1556 -91 
Q 1019 -91 701 211 
Q 384 513 384 1019 
Q 384 1609 779 1909 
Q 1175 2209 1959 2209 
L 2766 2209 
L 2766 2266 
Q 2766 2663 2505 2880 
Q 2244 3097 1772 3097 
Q 1472 3097 1187 3025 
Q 903 2953 641 2809 
L 641 3341 
Q 956 3463 1253 3523 
Q 1550 3584 1831 3584 
Q 2591 3584 2966 3190 
Q 3341 2797 3341 1997 
z
" transform="scale(0.015625)"/>
       <path id="DejaVuSans-76" d="M 191 3500 
L 800 3500 
L 1894 563 
L 2988 3500 
L 3597 3500 
L 2284 0 
L 1503 0 
L 191 3500 
z
" transform="scale(0.015625)"/>
       <path id="DejaVuSans-66" d="M 2375 4863 
L 2375 4384 
L 1825 4384 
Q 1516 4384 1395 4259 
Q 1275 4134 1275 3809 
L 1275 3500 
L 2222 3500 
L 2222 3053 
L 1275 3053 
L 1275 0 
L 697 0 
L 697 3053 
L 147 3053 
L 147 3500 
L 697 3500 
L 697 3744 
Q 697 4328 969 4595 
Q 1241 4863 1831 4863 
L 2375 4863 
z
" transform="scale(0.015625)"/>
       <path id="DejaVuSans-75" d="M 544 1381 
L 544 3500 
L 1119 3500 
L 1119 1403 
Q 1119 906 1312 657 
Q 1506 409 1894 409 
Q 2359 409 2629 706 
Q 2900 1003 2900 1516 
L 2900 3500 
L 3475 3500 
L 3475 0 
L 2900 0 
L 2900 538 
Q 2691 219 2414 64 
Q 2138 -91 1772 -91 
Q 1169 -91 856 284 
Q 544 659 544 1381 
z
M 1991 3584 
L 1991 3584 
z
" transform="scale(0.015625)"/>
       <path id="DejaVuSans-78" d="M 3513 3500 
L 2247 1797 
L 3578 0 
L 2900 0 
L 1881 1375 
L 863 0 
L 184 0 
L 1544 1831 
L 300 3500 
L 978 3500 
L 1906 2253 
L 2834 3500 
L 3513 3500 
z
" transform="scale(0.015625)"/>
      </defs>
      <use xlink:href="#DejaVuSans-72"/>
      <use xlink:href="#DejaVuSans-65" x="38.863281"/>
      <use xlink:href="#DejaVuSans-6c" x="100.386719"/>
      <use xlink:href="#DejaVuSans-61" x="128.169922"/>
      <use xlink:href="#DejaVuSans-74" x="189.449219"/>
      <use xlink:href="#DejaVuSans-69" x="228.658203"/>
      <use xlink:href="#DejaVuSans-76" x="256.441406"/>
      <use xlink:href="#DejaVuSans-65" x="315.621094"/>
      <use xlink:href="#DejaVuSans-20" x="377.144531"/>
      <use xlink:href="#DejaVuSans-66" x="408.931641"/>
      <use xlink:href="#DejaVuSans-6c" x="444.136719"/>
      <use xlink:href="#DejaVuSans-75" x="471.919922"/>
      <use xlink:href="#DejaVuSans-78" x="535.298828"/>
     </g>
    </g>
   </g>
   <g id="line2d_25">
    <path d="M -1 61.887916 
L 5.939196 63.423032 
L 12.055815 62.550171 
L 18.172434 61.080091 
L 26.327925 62.274531 
L 34.483417 62.687991 
L 48.075903 60.069411 
L 56.231395 58.829031 
L 62.348013 59.747831 
L 68.464632 62.986602 
L 75.940499 62.334253 
L 84.775615 59.150611 
L 92.931107 58.27775 
L 99.72735 58.220325 
L 110.601339 59.288431 
L 126.912322 58.369631 
L 132.349316 61.011181 
L 134.388189 63.790552 
L 137.78631 67.006352 
L 142.543681 74.264874 
L 145.262178 77.756315 
L 153.417669 88.919737 
L 156.815791 91.997718 
L 162.93241 89.149437 
L 161.573161 92.365238 
L 165.650907 85.520176 
L 168.369404 81.385576 
L 171.767525 77.411765 
L 174.486023 70.796403 
L 176.524896 63.790552 
L 179.923017 56.04966 
L 181.96189 47.160268 
L 184.680387 37.788506 
L 186.039636 29.243664 
L 190.117382 22.352663 
L 191.47663 16.977681 
L 195.554376 12.815517 
L 201.670995 11.843885 
L 205.069116 13.394361 
L 207.787613 15.277901 
L 210.506111 17.620842 
L 213.224608 20.377242 
L 216.622729 23.317403 
L 221.380099 25.503229 
L 225.457845 27.911404 
L 228.176342 29.886824 
L 230.89484 33.240445 
L 236.331834 41.004307 
L 242.448453 46.608988 
L 246.933973 48.25364 
L 254.68169 47.711548 
L 261.477933 48.538468 
L 264.876054 50.192309 
L 266.914927 52.397429 
L 273.031546 58.415571 
L 275.750043 60.115351 
L 280.507413 61.360325 
L 292.740651 58.484481 
L 298.857269 59.334371 
L 302.935015 61.388808 
L 315.847877 63.997282 
L 322.64412 61.539491 
L 329.440363 59.949967 
L 334.650816 61.723251 
L 336.91623 63.354122 
L 344.392097 67.943529 
L 350.168904 67.998657 
L 353.227213 65.720032 
L 355.945711 63.193332 
L 359.479757 60.666631 
L 366.140075 59.823632 
L 371.577069 61.493551 
L 377.693688 65.582212 
L 385.655001 66.514138 
L 391.829874 64.4429 
L 395.36392 61.952951 
L 400.606736 59.869244 
L 405.558284 61.217911 
L 407.597157 62.917692 
L 414.9371 65.54546 
L 422.548892 63.20252 
L 425.947013 61.252366 
L 431.233696 59.704764 
L 431.233696 59.704764 
" clip-path="url(#pa083cf93aa)" style="fill: none; stroke: #e9967a; stroke-opacity: 0.8; stroke-width: 4; stroke-linecap: square"/>
   </g>
   <g id="line2d_26">
    <path d="M -1 62.595515 
L -0.177422 62.430727 
L 7.298445 61.516521 
L 15.453937 61.723251 
L 23.609428 61.516521 
L 31.76492 59.816741 
L 39.240787 59.839711 
L 46.03703 61.57073 
L 53.512897 62.481261 
L 61.668389 61.654341 
L 69.823881 61.149001 
L 86.134864 60.804451 
L 94.290355 59.747831 
L 102.445847 58.989821 
L 117.397582 56.46312 
L 123.5142 56.62391 
L 127.252134 58.530421 
L 128.951195 60.666631 
L 132.349316 63.491942 
L 134.388189 64.663412 
L 137.106686 66.455072 
L 139.825183 70.405913 
L 142.543681 73.529834 
L 145.262178 77.113155 
L 150.699172 85.795817 
L 153.417669 89.608837 
L 157.495415 92.649492 
L 162.93241 88.506277 
L 161.573161 91.813958 
L 165.650907 83.912276 
L 171.087901 70.865313 
L 173.806398 63.239272 
L 176.524896 56.07263 
L 179.243393 48.446588 
L 181.96189 42.474387 
L 184.680387 34.480825 
L 186.71926 25.935983 
L 189.437757 20.423182 
L 191.47663 15.186021 
L 194.195127 10.08668 
L 196.913625 6.687119 
L 200.99137 5.097595 
L 205.069116 7.008699 
L 207.787613 9.58134 
L 210.506111 11.373 
L 213.224608 14.083461 
L 215.943105 16.242641 
L 219.341226 18.286972 
L 222.739348 20.744762 
L 225.457845 23.960563 
L 230.89484 30.989385 
L 236.331834 34.802405 
L 240.40958 36.630818 
L 247.205823 38.64299 
L 253.322441 40.882566 
L 256.720563 43.255367 
L 259.43906 45.322668 
L 262.157557 47.757488 
L 264.876054 50.835469 
L 267.594552 53.040589 
L 270.313049 54.87819 
L 274.97333 56.984867 
L 288.662905 57.97914 
L 290.701778 59.288431 
L 295.459148 61.769191 
L 303.61464 63.400062 
L 311.770131 63.836492 
L 319.925623 62.504231 
L 326.721866 62.561656 
L 332.15886 64.732322 
L 340.314352 65.237662 
L 348.469843 64.181042 
L 356.625335 63.974312 
L 364.780826 64.801232 
L 372.936318 63.951342 
L 380.412185 62.265343 
L 386.528804 60.459901 
L 394.684296 60.436931 
L 401.189271 62.537046 
L 408.956406 64.575207 
L 416.917719 65.765972 
L 423.908141 64.525592 
L 431.233696 63.017545 
L 431.233696 63.017545 
" clip-path="url(#pa083cf93aa)" style="fill: none; stroke: #ffe4b5; stroke-opacity: 0.8; stroke-width: 4; stroke-linecap: square"/>
   </g>
   <g id="line2d_27">
    <path d="M -1 64.353562 
L -0.516353 64.648648 
L 2.533607 66.205065 
L 5.595773 67.116057 
L 8.645733 67.195432 
L 11.695694 66.468457 
L 17.795615 63.485891 
L 20.839473 62.245889 
L 23.895536 61.654325 
L 26.945497 61.297555 
L 29.995458 60.651972 
L 33.045418 59.725858 
L 39.157544 58.194465 
L 42.207505 57.623716 
L 45.256245 57.295616 
L 51.354946 57.642839 
L 63.565773 58.649052 
L 66.615733 58.184575 
L 69.665694 57.090796 
L 75.765615 53.168094 
L 78.816796 51.843235 
L 81.866757 51.323516 
L 84.916718 51.643985 
L 87.966678 52.902148 
L 91.017859 54.907859 
L 94.080025 57.2576 
L 100.179946 62.432569 
L 103.229906 64.626646 
L 106.279867 66.23699 
L 109.329828 67.283123 
L 112.378568 67.713458 
L 115.428529 67.73156 
L 121.52845 68.106718 
L 124.591836 68.60646 
L 127.643017 69.492129 
L 130.692977 70.74495 
L 136.79656 74.348553 
L 139.847741 76.429714 
L 142.900143 78.765697 
L 145.937899 80.942182 
L 148.9903 82.584533 
L 152.042702 83.774362 
L 155.096324 84.210699 
L 158.148725 83.492937 
L 161.201127 81.751273 
L 164.253529 79.045321 
L 167.30471 74.851693 
L 170.357111 68.258845 
L 173.408292 60.677246 
L 182.561836 34.339419 
L 185.613017 27.378001 
L 188.664198 22.014336 
L 191.715379 18.511022 
L 194.76534 16.914873 
L 197.816521 16.786728 
L 200.866481 17.290189 
L 206.966403 20.580998 
L 210.015143 23.424136 
L 213.065103 26.108562 
L 216.127269 27.619604 
L 222.225969 27.284558 
L 225.27471 26.502736 
L 228.32345 27.227049 
L 231.37219 30.240627 
L 234.434355 35.724933 
L 237.483095 40.471258 
L 240.533056 44.692979 
L 243.581796 46.082783 
L 246.63908 46.216276 
L 249.682938 46.591795 
L 252.731678 46.37413 
L 255.7853 46.039392 
L 258.83404 45.831903 
L 261.888883 45.013412 
L 264.937623 43.80383 
L 267.992466 43.039211 
L 271.046088 43.103929 
L 274.088725 45.12526 
L 277.144788 45.894826 
L 280.192308 47.235851 
L 283.242269 49.738565 
L 286.297111 52.029596 
L 289.345851 54.8064 
L 292.408017 56.590475 
L 295.456757 58.011588 
L 298.504277 58.915005 
L 301.553017 58.54553 
L 304.601757 59.817506 
L 310.711442 61.16362 
L 313.761403 61.446002 
L 316.810143 62.094305 
L 319.858883 63.052609 
L 322.907623 63.594495 
L 325.969788 62.673573 
L 329.020969 61.424301 
L 332.07093 58.724991 
L 335.11967 57.289178 
L 338.16841 56.202767 
L 341.217151 54.80148 
L 344.265891 55.120943 
L 347.328056 55.967069 
L 353.424316 58.051562 
L 356.473056 58.063255 
L 359.521796 57.861743 
L 365.632702 57.243558 
L 371.731403 58.473819 
L 374.781363 57.851371 
L 377.830103 56.588183 
L 380.880064 56.148738 
L 383.942229 56.868016 
L 386.990969 58.311593 
L 390.04093 59.464765 
L 393.095773 59.846243 
L 396.144513 58.648748 
L 399.194473 56.980622 
L 402.243214 55.839153 
L 405.291954 55.246662 
L 408.340694 55.204489 
L 411.402859 56.414583 
L 414.450379 57.918981 
L 417.499119 59.876748 
L 420.547859 61.136891 
L 423.596599 62.111336 
L 426.659985 62.513378 
L 431.233696 62.852494 
L 431.233696 62.852494 
" clip-path="url(#pa083cf93aa)" style="fill: none; stroke: #000000; stroke-width: 1.5; stroke-linecap: square"/>
   </g>
   <g id="line2d_28">
    <path d="M 155.096324 97.027087 
L 155.096324 0.72 
" clip-path="url(#pa083cf93aa)" style="fill: none; stroke: #808000; stroke-width: 1.5; stroke-linecap: square"/>
   </g>
   <g id="line2d_29">
    <path d="M 194.76534 97.027087 
L 194.76534 0.72 
" clip-path="url(#pa083cf93aa)" style="fill: none; stroke: #ff7f50; stroke-width: 1.5; stroke-linecap: square"/>
   </g>
   <g id="patch_3">
    <path d="M 29.626875 97.027087 
L 29.626875 0.72 
" style="fill: none; stroke: #000000; stroke-width: 0.5; stroke-linejoin: miter; stroke-linecap: square"/>
   </g>
   <g id="patch_4">
    <path d="M 425.059946 97.027087 
L 425.059946 0.72 
" style="fill: none; stroke: #000000; stroke-width: 0.5; stroke-linejoin: miter; stroke-linecap: square"/>
   </g>
   <g id="patch_5">
    <path d="M 29.626875 97.027087 
L 425.059946 97.027087 
" style="fill: none; stroke: #000000; stroke-width: 0.5; stroke-linejoin: miter; stroke-linecap: square"/>
   </g>
   <g id="patch_6">
    <path d="M 29.626875 0.72 
L 425.059946 0.72 
" style="fill: none; stroke: #000000; stroke-width: 0.5; stroke-linejoin: miter; stroke-linecap: square"/>
   </g>
   <g id="legend_1">
    <g id="patch_7">
     <path d="M 355.700883 30.144063 
L 420.159946 30.144063 
Q 421.559946 30.144063 421.559946 28.744062 
L 421.559946 5.62 
Q 421.559946 4.22 420.159946 4.22 
L 355.700883 4.22 
Q 354.300883 4.22 354.300883 5.62 
L 354.300883 28.744062 
Q 354.300883 30.144063 355.700883 30.144063 
z
" style="fill: #ffffff; opacity: 0.8; stroke: #cccccc; stroke-linejoin: miter"/>
    </g>
    <g id="line2d_30">
     <path d="M 355.700883 8.488906 
L 362.700883 8.488906 
L 369.700883 8.488906 
" style="fill: none; stroke: #e9967a; stroke-opacity: 0.8; stroke-width: 4; stroke-linecap: square"/>
    </g>
    <g id="text_15">
     <!-- TESS 2018-19 -->
     <g transform="translate(371.100883 10.938906) scale(0.07 -0.07)">
      <defs>
       <path id="DejaVuSans-54" d="M -19 4666 
L 3928 4666 
L 3928 4134 
L 2272 4134 
L 2272 0 
L 1638 0 
L 1638 4134 
L -19 4134 
L -19 4666 
z
" transform="scale(0.015625)"/>
       <path id="DejaVuSans-45" d="M 628 4666 
L 3578 4666 
L 3578 4134 
L 1259 4134 
L 1259 2753 
L 3481 2753 
L 3481 2222 
L 1259 2222 
L 1259 531 
L 3634 531 
L 3634 0 
L 628 0 
L 628 4666 
z
" transform="scale(0.015625)"/>
       <path id="DejaVuSans-53" d="M 3425 4513 
L 3425 3897 
Q 3066 4069 2747 4153 
Q 2428 4238 2131 4238 
Q 1616 4238 1336 4038 
Q 1056 3838 1056 3469 
Q 1056 3159 1242 3001 
Q 1428 2844 1947 2747 
L 2328 2669 
Q 3034 2534 3370 2195 
Q 3706 1856 3706 1288 
Q 3706 609 3251 259 
Q 2797 -91 1919 -91 
Q 1588 -91 1214 -16 
Q 841 59 441 206 
L 441 856 
Q 825 641 1194 531 
Q 1563 422 1919 422 
Q 2459 422 2753 634 
Q 3047 847 3047 1241 
Q 3047 1584 2836 1778 
Q 2625 1972 2144 2069 
L 1759 2144 
Q 1053 2284 737 2584 
Q 422 2884 422 3419 
Q 422 4038 858 4394 
Q 1294 4750 2059 4750 
Q 2388 4750 2728 4690 
Q 3069 4631 3425 4513 
z
" transform="scale(0.015625)"/>
       <path id="DejaVuSans-2d" d="M 313 2009 
L 1997 2009 
L 1997 1497 
L 313 1497 
L 313 2009 
z
" transform="scale(0.015625)"/>
      </defs>
      <use xlink:href="#DejaVuSans-54"/>
      <use xlink:href="#DejaVuSans-45" x="61.083984"/>
      <use xlink:href="#DejaVuSans-53" x="124.267578"/>
      <use xlink:href="#DejaVuSans-53" x="187.744141"/>
      <use xlink:href="#DejaVuSans-20" x="251.220703"/>
      <use xlink:href="#DejaVuSans-32" x="283.007812"/>
      <use xlink:href="#DejaVuSans-30" x="346.630859"/>
      <use xlink:href="#DejaVuSans-31" x="410.253906"/>
      <use xlink:href="#DejaVuSans-38" x="473.876953"/>
      <use xlink:href="#DejaVuSans-2d" x="537.5"/>
      <use xlink:href="#DejaVuSans-31" x="573.583984"/>
      <use xlink:href="#DejaVuSans-39" x="637.207031"/>
     </g>
    </g>
    <g id="line2d_31">
     <path d="M 355.700883 16.663594 
L 362.700883 16.663594 
L 369.700883 16.663594 
" style="fill: none; stroke: #ffe4b5; stroke-opacity: 0.8; stroke-width: 4; stroke-linecap: square"/>
    </g>
    <g id="text_16">
     <!-- TESS 2020-21 -->
     <g transform="translate(371.100883 19.113594) scale(0.07 -0.07)">
      <use xlink:href="#DejaVuSans-54"/>
      <use xlink:href="#DejaVuSans-45" x="61.083984"/>
      <use xlink:href="#DejaVuSans-53" x="124.267578"/>
      <use xlink:href="#DejaVuSans-53" x="187.744141"/>
      <use xlink:href="#DejaVuSans-20" x="251.220703"/>
      <use xlink:href="#DejaVuSans-32" x="283.007812"/>
      <use xlink:href="#DejaVuSans-30" x="346.630859"/>
      <use xlink:href="#DejaVuSans-32" x="410.253906"/>
      <use xlink:href="#DejaVuSans-30" x="473.876953"/>
      <use xlink:href="#DejaVuSans-2d" x="537.5"/>
      <use xlink:href="#DejaVuSans-32" x="573.583984"/>
      <use xlink:href="#DejaVuSans-31" x="637.207031"/>
     </g>
    </g>
    <g id="line2d_32">
     <path d="M 355.700883 24.838281 
L 362.700883 24.838281 
L 369.700883 24.838281 
" style="fill: none; stroke: #000000; stroke-width: 1.5; stroke-linecap: square"/>
    </g>
    <g id="text_17">
     <!-- simulation -->
     <g transform="translate(371.100883 27.288281) scale(0.07 -0.07)">
      <defs>
       <path id="DejaVuSans-73" d="M 2834 3397 
L 2834 2853 
Q 2591 2978 2328 3040 
Q 2066 3103 1784 3103 
Q 1356 3103 1142 2972 
Q 928 2841 928 2578 
Q 928 2378 1081 2264 
Q 1234 2150 1697 2047 
L 1894 2003 
Q 2506 1872 2764 1633 
Q 3022 1394 3022 966 
Q 3022 478 2636 193 
Q 2250 -91 1575 -91 
Q 1294 -91 989 -36 
Q 684 19 347 128 
L 347 722 
Q 666 556 975 473 
Q 1284 391 1588 391 
Q 1994 391 2212 530 
Q 2431 669 2431 922 
Q 2431 1156 2273 1281 
Q 2116 1406 1581 1522 
L 1381 1569 
Q 847 1681 609 1914 
Q 372 2147 372 2553 
Q 372 3047 722 3315 
Q 1072 3584 1716 3584 
Q 2034 3584 2315 3537 
Q 2597 3491 2834 3397 
z
" transform="scale(0.015625)"/>
       <path id="DejaVuSans-6f" d="M 1959 3097 
Q 1497 3097 1228 2736 
Q 959 2375 959 1747 
Q 959 1119 1226 758 
Q 1494 397 1959 397 
Q 2419 397 2687 759 
Q 2956 1122 2956 1747 
Q 2956 2369 2687 2733 
Q 2419 3097 1959 3097 
z
M 1959 3584 
Q 2709 3584 3137 3096 
Q 3566 2609 3566 1747 
Q 3566 888 3137 398 
Q 2709 -91 1959 -91 
Q 1206 -91 779 398 
Q 353 888 353 1747 
Q 353 2609 779 3096 
Q 1206 3584 1959 3584 
z
" transform="scale(0.015625)"/>
       <path id="DejaVuSans-6e" d="M 3513 2113 
L 3513 0 
L 2938 0 
L 2938 2094 
Q 2938 2591 2744 2837 
Q 2550 3084 2163 3084 
Q 1697 3084 1428 2787 
Q 1159 2491 1159 1978 
L 1159 0 
L 581 0 
L 581 3500 
L 1159 3500 
L 1159 2956 
Q 1366 3272 1645 3428 
Q 1925 3584 2291 3584 
Q 2894 3584 3203 3211 
Q 3513 2838 3513 2113 
z
" transform="scale(0.015625)"/>
      </defs>
      <use xlink:href="#DejaVuSans-73"/>
      <use xlink:href="#DejaVuSans-69" x="52.099609"/>
      <use xlink:href="#DejaVuSans-6d" x="79.882812"/>
      <use xlink:href="#DejaVuSans-75" x="177.294922"/>
      <use xlink:href="#DejaVuSans-6c" x="240.673828"/>
      <use xlink:href="#DejaVuSans-61" x="268.457031"/>
      <use xlink:href="#DejaVuSans-74" x="329.736328"/>
      <use xlink:href="#DejaVuSans-69" x="368.945312"/>
      <use xlink:href="#DejaVuSans-6f" x="396.728516"/>
      <use xlink:href="#DejaVuSans-6e" x="457.910156"/>
     </g>
    </g>
   </g>
  </g>
 </g>
 <defs>
  <clipPath id="pa083cf93aa">
   <rect x="29.626875" y="0.72" width="395.433071" height="96.307087"/>
  </clipPath>
 </defs>
</svg>
