<?xml version="1.0" encoding="utf-8" standalone="no"?>
<!DOCTYPE svg PUBLIC "-//W3C//DTD SVG 1.1//EN"
  "http://www.w3.org/Graphics/SVG/1.1/DTD/svg11.dtd">
<svg xmlns:xlink="http://www.w3.org/1999/xlink" width="430.233696pt" height="124.209847pt" viewBox="0 0 430.233696 124.209847" xmlns="http://www.w3.org/2000/svg" version="1.1">
 <metadata>
  <rdf:RDF xmlns:dc="http://purl.org/dc/elements/1.1/" xmlns:cc="http://creativecommons.org/ns#" xmlns:rdf="http://www.w3.org/1999/02/22-rdf-syntax-ns#">
   <cc:Work>
    <dc:type rdf:resource="http://purl.org/dc/dcmitype/StillImage"/>
    <dc:date>2023-05-17T16:01:08.483690</dc:date>
    <dc:format>image/svg+xml</dc:format>
    <dc:creator>
     <cc:Agent>
      <dc:title>Matplotlib v3.6.2, https://matplotlib.org/</dc:title>
     </cc:Agent>
    </dc:creator>
   </cc:Work>
  </rdf:RDF>
 </metadata>
 <defs>
  <style type="text/css">*{stroke-linejoin: round; stroke-linecap: butt}</style>
 </defs>
 <g id="figure_1">
  <g id="patch_1">
   <path d="M 0 124.209847 
L 430.233696 124.209847 
L 430.233696 0 
L 0 0 
z
" style="fill: #ffffff"/>
  </g>
  <g id="axes_1">
   <g id="patch_2">
    <path d="M 29.626875 98.940472 
L 425.059946 98.940472 
L 425.059946 0.72 
L 29.626875 0.72 
z
" style="fill: #ffffff"/>
   </g>
   <g id="matplotlib.axis_1">
    <g id="xtick_1">
     <g id="line2d_1">
      <path d="M 55.98908 98.940472 
L 55.98908 0.72 
" clip-path="url(#pe38340021d)" style="fill: none; stroke: #b0b0b0; stroke-width: 0.5; stroke-linecap: square"/>
     </g>
     <g id="line2d_2">
      <defs>
       <path id="me017153f04" d="M 0 0 
L 0 3.5 
" style="stroke: #000000; stroke-width: 0.8"/>
      </defs>
      <g>
       <use xlink:href="#me017153f04" x="55.98908" y="98.940472" style="stroke: #000000; stroke-width: 0.8"/>
      </g>
     </g>
     <g id="text_1">
      <!-- −4 -->
      <g transform="translate(50.829314 111.259379) scale(0.07 -0.07)">
       <defs>
        <path id="DejaVuSans-2212" d="M 678 2272 
L 4684 2272 
L 4684 1741 
L 678 1741 
L 678 2272 
z
" transform="scale(0.015625)"/>
        <path id="DejaVuSans-34" d="M 2419 4116 
L 825 1625 
L 2419 1625 
L 2419 4116 
z
M 2253 4666 
L 3047 4666 
L 3047 1625 
L 3713 1625 
L 3713 1100 
L 3047 1100 
L 3047 0 
L 2419 0 
L 2419 1100 
L 313 1100 
L 313 1709 
L 2253 4666 
z
" transform="scale(0.015625)"/>
       </defs>
       <use xlink:href="#DejaVuSans-2212"/>
       <use xlink:href="#DejaVuSans-34" x="83.789062"/>
      </g>
     </g>
    </g>
    <g id="xtick_2">
     <g id="line2d_3">
      <path d="M 108.713489 98.940472 
L 108.713489 0.72 
" clip-path="url(#pe38340021d)" style="fill: none; stroke: #b0b0b0; stroke-width: 0.5; stroke-linecap: square"/>
     </g>
     <g id="line2d_4">
      <g>
       <use xlink:href="#me017153f04" x="108.713489" y="98.940472" style="stroke: #000000; stroke-width: 0.8"/>
      </g>
     </g>
     <g id="text_2">
      <!-- −2 -->
      <g transform="translate(103.553724 111.259379) scale(0.07 -0.07)">
       <defs>
        <path id="DejaVuSans-32" d="M 1228 531 
L 3431 531 
L 3431 0 
L 469 0 
L 469 531 
Q 828 903 1448 1529 
Q 2069 2156 2228 2338 
Q 2531 2678 2651 2914 
Q 2772 3150 2772 3378 
Q 2772 3750 2511 3984 
Q 2250 4219 1831 4219 
Q 1534 4219 1204 4116 
Q 875 4013 500 3803 
L 500 4441 
Q 881 4594 1212 4672 
Q 1544 4750 1819 4750 
Q 2544 4750 2975 4387 
Q 3406 4025 3406 3419 
Q 3406 3131 3298 2873 
Q 3191 2616 2906 2266 
Q 2828 2175 2409 1742 
Q 1991 1309 1228 531 
z
" transform="scale(0.015625)"/>
       </defs>
       <use xlink:href="#DejaVuSans-2212"/>
       <use xlink:href="#DejaVuSans-32" x="83.789062"/>
      </g>
     </g>
    </g>
    <g id="xtick_3">
     <g id="line2d_5">
      <path d="M 161.437899 98.940472 
L 161.437899 0.72 
" clip-path="url(#pe38340021d)" style="fill: none; stroke: #b0b0b0; stroke-width: 0.5; stroke-linecap: square"/>
     </g>
     <g id="line2d_6">
      <g>
       <use xlink:href="#me017153f04" x="161.437899" y="98.940472" style="stroke: #000000; stroke-width: 0.8"/>
      </g>
     </g>
     <g id="text_3">
      <!-- 0 -->
      <g transform="translate(159.211024 111.259379) scale(0.07 -0.07)">
       <defs>
        <path id="DejaVuSans-30" d="M 2034 4250 
Q 1547 4250 1301 3770 
Q 1056 3291 1056 2328 
Q 1056 1369 1301 889 
Q 1547 409 2034 409 
Q 2525 409 2770 889 
Q 3016 1369 3016 2328 
Q 3016 3291 2770 3770 
Q 2525 4250 2034 4250 
z
M 2034 4750 
Q 2819 4750 3233 4129 
Q 3647 3509 3647 2328 
Q 3647 1150 3233 529 
Q 2819 -91 2034 -91 
Q 1250 -91 836 529 
Q 422 1150 422 2328 
Q 422 3509 836 4129 
Q 1250 4750 2034 4750 
z
" transform="scale(0.015625)"/>
       </defs>
       <use xlink:href="#DejaVuSans-30"/>
      </g>
     </g>
    </g>
    <g id="xtick_4">
     <g id="line2d_7">
      <path d="M 214.162308 98.940472 
L 214.162308 0.72 
" clip-path="url(#pe38340021d)" style="fill: none; stroke: #b0b0b0; stroke-width: 0.5; stroke-linecap: square"/>
     </g>
     <g id="line2d_8">
      <g>
       <use xlink:href="#me017153f04" x="214.162308" y="98.940472" style="stroke: #000000; stroke-width: 0.8"/>
      </g>
     </g>
     <g id="text_4">
      <!-- 2 -->
      <g transform="translate(211.935433 111.259379) scale(0.07 -0.07)">
       <use xlink:href="#DejaVuSans-32"/>
      </g>
     </g>
    </g>
    <g id="xtick_5">
     <g id="line2d_9">
      <path d="M 266.886718 98.940472 
L 266.886718 0.72 
" clip-path="url(#pe38340021d)" style="fill: none; stroke: #b0b0b0; stroke-width: 0.5; stroke-linecap: square"/>
     </g>
     <g id="line2d_10">
      <g>
       <use xlink:href="#me017153f04" x="266.886718" y="98.940472" style="stroke: #000000; stroke-width: 0.8"/>
      </g>
     </g>
     <g id="text_5">
      <!-- 4 -->
      <g transform="translate(264.659843 111.259379) scale(0.07 -0.07)">
       <use xlink:href="#DejaVuSans-34"/>
      </g>
     </g>
    </g>
    <g id="xtick_6">
     <g id="line2d_11">
      <path d="M 319.611127 98.940472 
L 319.611127 0.72 
" clip-path="url(#pe38340021d)" style="fill: none; stroke: #b0b0b0; stroke-width: 0.5; stroke-linecap: square"/>
     </g>
     <g id="line2d_12">
      <g>
       <use xlink:href="#me017153f04" x="319.611127" y="98.940472" style="stroke: #000000; stroke-width: 0.8"/>
      </g>
     </g>
     <g id="text_6">
      <!-- 6 -->
      <g transform="translate(317.384252 111.259379) scale(0.07 -0.07)">
       <defs>
        <path id="DejaVuSans-36" d="M 2113 2584 
Q 1688 2584 1439 2293 
Q 1191 2003 1191 1497 
Q 1191 994 1439 701 
Q 1688 409 2113 409 
Q 2538 409 2786 701 
Q 3034 994 3034 1497 
Q 3034 2003 2786 2293 
Q 2538 2584 2113 2584 
z
M 3366 4563 
L 3366 3988 
Q 3128 4100 2886 4159 
Q 2644 4219 2406 4219 
Q 1781 4219 1451 3797 
Q 1122 3375 1075 2522 
Q 1259 2794 1537 2939 
Q 1816 3084 2150 3084 
Q 2853 3084 3261 2657 
Q 3669 2231 3669 1497 
Q 3669 778 3244 343 
Q 2819 -91 2113 -91 
Q 1303 -91 875 529 
Q 447 1150 447 2328 
Q 447 3434 972 4092 
Q 1497 4750 2381 4750 
Q 2619 4750 2861 4703 
Q 3103 4656 3366 4563 
z
" transform="scale(0.015625)"/>
       </defs>
       <use xlink:href="#DejaVuSans-36"/>
      </g>
     </g>
    </g>
    <g id="xtick_7">
     <g id="line2d_13">
      <path d="M 372.335536 98.940472 
L 372.335536 0.72 
" clip-path="url(#pe38340021d)" style="fill: none; stroke: #b0b0b0; stroke-width: 0.5; stroke-linecap: square"/>
     </g>
     <g id="line2d_14">
      <g>
       <use xlink:href="#me017153f04" x="372.335536" y="98.940472" style="stroke: #000000; stroke-width: 0.8"/>
      </g>
     </g>
     <g id="text_7">
      <!-- 8 -->
      <g transform="translate(370.108661 111.259379) scale(0.07 -0.07)">
       <defs>
        <path id="DejaVuSans-38" d="M 2034 2216 
Q 1584 2216 1326 1975 
Q 1069 1734 1069 1313 
Q 1069 891 1326 650 
Q 1584 409 2034 409 
Q 2484 409 2743 651 
Q 3003 894 3003 1313 
Q 3003 1734 2745 1975 
Q 2488 2216 2034 2216 
z
M 1403 2484 
Q 997 2584 770 2862 
Q 544 3141 544 3541 
Q 544 4100 942 4425 
Q 1341 4750 2034 4750 
Q 2731 4750 3128 4425 
Q 3525 4100 3525 3541 
Q 3525 3141 3298 2862 
Q 3072 2584 2669 2484 
Q 3125 2378 3379 2068 
Q 3634 1759 3634 1313 
Q 3634 634 3220 271 
Q 2806 -91 2034 -91 
Q 1263 -91 848 271 
Q 434 634 434 1313 
Q 434 1759 690 2068 
Q 947 2378 1403 2484 
z
M 1172 3481 
Q 1172 3119 1398 2916 
Q 1625 2713 2034 2713 
Q 2441 2713 2670 2916 
Q 2900 3119 2900 3481 
Q 2900 3844 2670 4047 
Q 2441 4250 2034 4250 
Q 1625 4250 1398 4047 
Q 1172 3844 1172 3481 
z
" transform="scale(0.015625)"/>
       </defs>
       <use xlink:href="#DejaVuSans-38"/>
      </g>
     </g>
    </g>
    <g id="xtick_8">
     <g id="line2d_15">
      <path d="M 425.059946 98.940472 
L 425.059946 0.72 
" clip-path="url(#pe38340021d)" style="fill: none; stroke: #b0b0b0; stroke-width: 0.5; stroke-linecap: square"/>
     </g>
     <g id="line2d_16">
      <g>
       <use xlink:href="#me017153f04" x="425.059946" y="98.940472" style="stroke: #000000; stroke-width: 0.8"/>
      </g>
     </g>
     <g id="text_8">
      <!-- 10 -->
      <g transform="translate(420.606196 111.259379) scale(0.07 -0.07)">
       <defs>
        <path id="DejaVuSans-31" d="M 794 531 
L 1825 531 
L 1825 4091 
L 703 3866 
L 703 4441 
L 1819 4666 
L 2450 4666 
L 2450 531 
L 3481 531 
L 3481 0 
L 794 0 
L 794 531 
z
" transform="scale(0.015625)"/>
       </defs>
       <use xlink:href="#DejaVuSans-31"/>
       <use xlink:href="#DejaVuSans-30" x="63.623047"/>
      </g>
     </g>
    </g>
    <g id="text_9">
     <!-- time [d] -->
     <g transform="translate(213.370754 122.034066) scale(0.07 -0.07)">
      <defs>
       <path id="DejaVuSans-74" d="M 1172 4494 
L 1172 3500 
L 2356 3500 
L 2356 3053 
L 1172 3053 
L 1172 1153 
Q 1172 725 1289 603 
Q 1406 481 1766 481 
L 2356 481 
L 2356 0 
L 1766 0 
Q 1100 0 847 248 
Q 594 497 594 1153 
L 594 3053 
L 172 3053 
L 172 3500 
L 594 3500 
L 594 4494 
L 1172 4494 
z
" transform="scale(0.015625)"/>
       <path id="DejaVuSans-69" d="M 603 3500 
L 1178 3500 
L 1178 0 
L 603 0 
L 603 3500 
z
M 603 4863 
L 1178 4863 
L 1178 4134 
L 603 4134 
L 603 4863 
z
" transform="scale(0.015625)"/>
       <path id="DejaVuSans-6d" d="M 3328 2828 
Q 3544 3216 3844 3400 
Q 4144 3584 4550 3584 
Q 5097 3584 5394 3201 
Q 5691 2819 5691 2113 
L 5691 0 
L 5113 0 
L 5113 2094 
Q 5113 2597 4934 2840 
Q 4756 3084 4391 3084 
Q 3944 3084 3684 2787 
Q 3425 2491 3425 1978 
L 3425 0 
L 2847 0 
L 2847 2094 
Q 2847 2600 2669 2842 
Q 2491 3084 2119 3084 
Q 1678 3084 1418 2786 
Q 1159 2488 1159 1978 
L 1159 0 
L 581 0 
L 581 3500 
L 1159 3500 
L 1159 2956 
Q 1356 3278 1631 3431 
Q 1906 3584 2284 3584 
Q 2666 3584 2933 3390 
Q 3200 3197 3328 2828 
z
" transform="scale(0.015625)"/>
       <path id="DejaVuSans-65" d="M 3597 1894 
L 3597 1613 
L 953 1613 
Q 991 1019 1311 708 
Q 1631 397 2203 397 
Q 2534 397 2845 478 
Q 3156 559 3463 722 
L 3463 178 
Q 3153 47 2828 -22 
Q 2503 -91 2169 -91 
Q 1331 -91 842 396 
Q 353 884 353 1716 
Q 353 2575 817 3079 
Q 1281 3584 2069 3584 
Q 2775 3584 3186 3129 
Q 3597 2675 3597 1894 
z
M 3022 2063 
Q 3016 2534 2758 2815 
Q 2500 3097 2075 3097 
Q 1594 3097 1305 2825 
Q 1016 2553 972 2059 
L 3022 2063 
z
" transform="scale(0.015625)"/>
       <path id="DejaVuSans-20" transform="scale(0.015625)"/>
       <path id="DejaVuSans-5b" d="M 550 4863 
L 1875 4863 
L 1875 4416 
L 1125 4416 
L 1125 -397 
L 1875 -397 
L 1875 -844 
L 550 -844 
L 550 4863 
z
" transform="scale(0.015625)"/>
       <path id="DejaVuSans-64" d="M 2906 2969 
L 2906 4863 
L 3481 4863 
L 3481 0 
L 2906 0 
L 2906 525 
Q 2725 213 2448 61 
Q 2172 -91 1784 -91 
Q 1150 -91 751 415 
Q 353 922 353 1747 
Q 353 2572 751 3078 
Q 1150 3584 1784 3584 
Q 2172 3584 2448 3432 
Q 2725 3281 2906 2969 
z
M 947 1747 
Q 947 1113 1208 752 
Q 1469 391 1925 391 
Q 2381 391 2643 752 
Q 2906 1113 2906 1747 
Q 2906 2381 2643 2742 
Q 2381 3103 1925 3103 
Q 1469 3103 1208 2742 
Q 947 2381 947 1747 
z
" transform="scale(0.015625)"/>
       <path id="DejaVuSans-5d" d="M 1947 4863 
L 1947 -844 
L 622 -844 
L 622 -397 
L 1369 -397 
L 1369 4416 
L 622 4416 
L 622 4863 
L 1947 4863 
z
" transform="scale(0.015625)"/>
      </defs>
      <use xlink:href="#DejaVuSans-74"/>
      <use xlink:href="#DejaVuSans-69" x="39.208984"/>
      <use xlink:href="#DejaVuSans-6d" x="66.992188"/>
      <use xlink:href="#DejaVuSans-65" x="164.404297"/>
      <use xlink:href="#DejaVuSans-20" x="225.927734"/>
      <use xlink:href="#DejaVuSans-5b" x="257.714844"/>
      <use xlink:href="#DejaVuSans-64" x="296.728516"/>
      <use xlink:href="#DejaVuSans-5d" x="360.205078"/>
     </g>
    </g>
   </g>
   <g id="matplotlib.axis_2">
    <g id="ytick_1">
     <g id="line2d_17">
      <path d="M 29.626875 88.36058 
L 425.059946 88.36058 
" clip-path="url(#pe38340021d)" style="fill: none; stroke: #b0b0b0; stroke-width: 0.5; stroke-linecap: square"/>
     </g>
     <g id="line2d_18">
      <defs>
       <path id="m026e26e208" d="M 0 0 
L -3.5 0 
" style="stroke: #000000; stroke-width: 0.8"/>
      </defs>
      <g>
       <use xlink:href="#m026e26e208" x="29.626875" y="88.36058" style="stroke: #000000; stroke-width: 0.8"/>
      </g>
     </g>
     <g id="text_10">
      <!-- 0.9 -->
      <g transform="translate(11.494688 91.020033) scale(0.07 -0.07)">
       <defs>
        <path id="DejaVuSans-2e" d="M 684 794 
L 1344 794 
L 1344 0 
L 684 0 
L 684 794 
z
" transform="scale(0.015625)"/>
        <path id="DejaVuSans-39" d="M 703 97 
L 703 672 
Q 941 559 1184 500 
Q 1428 441 1663 441 
Q 2288 441 2617 861 
Q 2947 1281 2994 2138 
Q 2813 1869 2534 1725 
Q 2256 1581 1919 1581 
Q 1219 1581 811 2004 
Q 403 2428 403 3163 
Q 403 3881 828 4315 
Q 1253 4750 1959 4750 
Q 2769 4750 3195 4129 
Q 3622 3509 3622 2328 
Q 3622 1225 3098 567 
Q 2575 -91 1691 -91 
Q 1453 -91 1209 -44 
Q 966 3 703 97 
z
M 1959 2075 
Q 2384 2075 2632 2365 
Q 2881 2656 2881 3163 
Q 2881 3666 2632 3958 
Q 2384 4250 1959 4250 
Q 1534 4250 1286 3958 
Q 1038 3666 1038 3163 
Q 1038 2656 1286 2365 
Q 1534 2075 1959 2075 
z
" transform="scale(0.015625)"/>
       </defs>
       <use xlink:href="#DejaVuSans-30"/>
       <use xlink:href="#DejaVuSans-2e" x="63.623047"/>
       <use xlink:href="#DejaVuSans-39" x="95.410156"/>
      </g>
     </g>
    </g>
    <g id="ytick_2">
     <g id="line2d_19">
      <path d="M 29.626875 60.443576 
L 425.059946 60.443576 
" clip-path="url(#pe38340021d)" style="fill: none; stroke: #b0b0b0; stroke-width: 0.5; stroke-linecap: square"/>
     </g>
     <g id="line2d_20">
      <g>
       <use xlink:href="#m026e26e208" x="29.626875" y="60.443576" style="stroke: #000000; stroke-width: 0.8"/>
      </g>
     </g>
     <g id="text_11">
      <!-- 1.0 -->
      <g transform="translate(11.494688 63.103029) scale(0.07 -0.07)">
       <use xlink:href="#DejaVuSans-31"/>
       <use xlink:href="#DejaVuSans-2e" x="63.623047"/>
       <use xlink:href="#DejaVuSans-30" x="95.410156"/>
      </g>
     </g>
    </g>
    <g id="ytick_3">
     <g id="line2d_21">
      <path d="M 29.626875 32.526572 
L 425.059946 32.526572 
" clip-path="url(#pe38340021d)" style="fill: none; stroke: #b0b0b0; stroke-width: 0.5; stroke-linecap: square"/>
     </g>
     <g id="line2d_22">
      <g>
       <use xlink:href="#m026e26e208" x="29.626875" y="32.526572" style="stroke: #000000; stroke-width: 0.8"/>
      </g>
     </g>
     <g id="text_12">
      <!-- 1.1 -->
      <g transform="translate(11.494688 35.186026) scale(0.07 -0.07)">
       <use xlink:href="#DejaVuSans-31"/>
       <use xlink:href="#DejaVuSans-2e" x="63.623047"/>
       <use xlink:href="#DejaVuSans-31" x="95.410156"/>
      </g>
     </g>
    </g>
    <g id="ytick_4">
     <g id="line2d_23">
      <path d="M 29.626875 4.609569 
L 425.059946 4.609569 
" clip-path="url(#pe38340021d)" style="fill: none; stroke: #b0b0b0; stroke-width: 0.5; stroke-linecap: square"/>
     </g>
     <g id="line2d_24">
      <g>
       <use xlink:href="#m026e26e208" x="29.626875" y="4.609569" style="stroke: #000000; stroke-width: 0.8"/>
      </g>
     </g>
     <g id="text_13">
      <!-- 1.2 -->
      <g transform="translate(11.494688 7.269022) scale(0.07 -0.07)">
       <use xlink:href="#DejaVuSans-31"/>
       <use xlink:href="#DejaVuSans-2e" x="63.623047"/>
       <use xlink:href="#DejaVuSans-32" x="95.410156"/>
      </g>
     </g>
    </g>
    <g id="text_14">
     <!-- relative flux -->
     <g transform="translate(6.038906 70.637189) rotate(-90) scale(0.07 -0.07)">
      <defs>
       <path id="DejaVuSans-72" d="M 2631 2963 
Q 2534 3019 2420 3045 
Q 2306 3072 2169 3072 
Q 1681 3072 1420 2755 
Q 1159 2438 1159 1844 
L 1159 0 
L 581 0 
L 581 3500 
L 1159 3500 
L 1159 2956 
Q 1341 3275 1631 3429 
Q 1922 3584 2338 3584 
Q 2397 3584 2469 3576 
Q 2541 3569 2628 3553 
L 2631 2963 
z
" transform="scale(0.015625)"/>
       <path id="DejaVuSans-6c" d="M 603 4863 
L 1178 4863 
L 1178 0 
L 603 0 
L 603 4863 
z
" transform="scale(0.015625)"/>
       <path id="DejaVuSans-61" d="M 2194 1759 
Q 1497 1759 1228 1600 
Q 959 1441 959 1056 
Q 959 750 1161 570 
Q 1363 391 1709 391 
Q 2188 391 2477 730 
Q 2766 1069 2766 1631 
L 2766 1759 
L 2194 1759 
z
M 3341 1997 
L 3341 0 
L 2766 0 
L 2766 531 
Q 2569 213 2275 61 
Q 1981 -91 1556 -91 
Q 1019 -91 701 211 
Q 384 513 384 1019 
Q 384 1609 779 1909 
Q 1175 2209 1959 2209 
L 2766 2209 
L 2766 2266 
Q 2766 2663 2505 2880 
Q 2244 3097 1772 3097 
Q 1472 3097 1187 3025 
Q 903 2953 641 2809 
L 641 3341 
Q 956 3463 1253 3523 
Q 1550 3584 1831 3584 
Q 2591 3584 2966 3190 
Q 3341 2797 3341 1997 
z
" transform="scale(0.015625)"/>
       <path id="DejaVuSans-76" d="M 191 3500 
L 800 3500 
L 1894 563 
L 2988 3500 
L 3597 3500 
L 2284 0 
L 1503 0 
L 191 3500 
z
" transform="scale(0.015625)"/>
       <path id="DejaVuSans-66" d="M 2375 4863 
L 2375 4384 
L 1825 4384 
Q 1516 4384 1395 4259 
Q 1275 4134 1275 3809 
L 1275 3500 
L 2222 3500 
L 2222 3053 
L 1275 3053 
L 1275 0 
L 697 0 
L 697 3053 
L 147 3053 
L 147 3500 
L 697 3500 
L 697 3744 
Q 697 4328 969 4595 
Q 1241 4863 1831 4863 
L 2375 4863 
z
" transform="scale(0.015625)"/>
       <path id="DejaVuSans-75" d="M 544 1381 
L 544 3500 
L 1119 3500 
L 1119 1403 
Q 1119 906 1312 657 
Q 1506 409 1894 409 
Q 2359 409 2629 706 
Q 2900 1003 2900 1516 
L 2900 3500 
L 3475 3500 
L 3475 0 
L 2900 0 
L 2900 538 
Q 2691 219 2414 64 
Q 2138 -91 1772 -91 
Q 1169 -91 856 284 
Q 544 659 544 1381 
z
M 1991 3584 
L 1991 3584 
z
" transform="scale(0.015625)"/>
       <path id="DejaVuSans-78" d="M 3513 3500 
L 2247 1797 
L 3578 0 
L 2900 0 
L 1881 1375 
L 863 0 
L 184 0 
L 1544 1831 
L 300 3500 
L 978 3500 
L 1906 2253 
L 2834 3500 
L 3513 3500 
z
" transform="scale(0.015625)"/>
      </defs>
      <use xlink:href="#DejaVuSans-72"/>
      <use xlink:href="#DejaVuSans-65" x="38.863281"/>
      <use xlink:href="#DejaVuSans-6c" x="100.386719"/>
      <use xlink:href="#DejaVuSans-61" x="128.169922"/>
      <use xlink:href="#DejaVuSans-74" x="189.449219"/>
      <use xlink:href="#DejaVuSans-69" x="228.658203"/>
      <use xlink:href="#DejaVuSans-76" x="256.441406"/>
      <use xlink:href="#DejaVuSans-65" x="315.621094"/>
      <use xlink:href="#DejaVuSans-20" x="377.144531"/>
      <use xlink:href="#DejaVuSans-66" x="408.931641"/>
      <use xlink:href="#DejaVuSans-6c" x="444.136719"/>
      <use xlink:href="#DejaVuSans-75" x="471.919922"/>
      <use xlink:href="#DejaVuSans-78" x="535.298828"/>
     </g>
    </g>
   </g>
   <g id="line2d_25">
    <path d="M -1 63.103172 
L 5.939196 64.668787 
L 12.055815 63.778585 
L 18.172434 62.279298 
L 26.327925 63.497469 
L 34.483417 63.919144 
L 48.075903 61.248538 
L 56.231395 59.983515 
L 62.348013 60.920569 
L 68.464632 64.223686 
L 75.940499 63.558378 
L 84.775615 60.311484 
L 92.931107 59.421282 
L 99.72735 59.362716 
L 110.601339 60.452042 
L 126.912322 59.514987 
L 132.349316 62.209019 
L 134.388189 65.043609 
L 137.78631 68.3233 
L 142.543681 75.72603 
L 145.262178 79.286838 
L 153.417669 90.67205 
L 156.815791 93.811182 
L 162.93241 90.906313 
L 161.573161 94.186004 
L 165.650907 87.204948 
L 168.369404 82.988203 
L 171.767525 78.935442 
L 174.486023 72.18865 
L 176.524896 65.043609 
L 179.923017 57.148925 
L 181.96189 48.082922 
L 184.680387 38.524966 
L 186.039636 29.810359 
L 190.117382 22.782451 
L 191.47663 17.300682 
L 195.554376 13.055825 
L 201.670995 12.06489 
L 205.069116 13.646169 
L 207.787613 15.567131 
L 210.506111 17.95662 
L 213.224608 20.767783 
L 216.622729 23.766358 
L 221.380099 25.995611 
L 225.457845 28.45163 
L 228.176342 30.466298 
L 230.89484 33.886547 
L 236.331834 41.804657 
L 242.448453 47.52069 
L 246.933973 49.198017 
L 254.68169 48.645155 
L 261.477933 49.488504 
L 264.876054 51.175202 
L 266.914927 53.424133 
L 273.031546 59.56184 
L 275.750043 61.295391 
L 280.507413 62.5651 
L 292.740651 59.632119 
L 298.857269 60.498895 
L 302.935015 62.594149 
L 315.847877 65.254446 
L 322.64412 62.747825 
L 329.440363 61.126721 
L 334.650816 62.935236 
L 336.91623 64.598508 
L 344.392097 69.279095 
L 350.168904 69.335319 
L 353.227213 67.011423 
L 355.945711 64.434524 
L 359.479757 61.857624 
L 366.140075 60.997876 
L 371.577069 62.700973 
L 377.693688 66.870865 
L 385.655001 67.821306 
L 391.829874 65.708918 
L 395.36392 63.1695 
L 400.606736 61.044394 
L 405.558284 62.419856 
L 407.597157 64.153407 
L 414.9371 66.833383 
L 422.548892 64.443894 
L 425.947013 62.454996 
L 431.233696 60.876647 
L 431.233696 60.876647 
" clip-path="url(#pe38340021d)" style="fill: none; stroke: #e9967a; stroke-opacity: 0.8; stroke-width: 4; stroke-linecap: square"/>
   </g>
   <g id="line2d_26">
    <path d="M -1 63.82483 
L -0.177422 63.656768 
L 7.298445 62.724399 
L 15.453937 62.935236 
L 23.609428 62.724399 
L 31.76492 60.990848 
L 39.240787 61.014275 
L 46.03703 62.779685 
L 53.512897 63.708306 
L 61.668389 62.864957 
L 69.823881 62.349577 
L 86.134864 61.998182 
L 94.290355 60.920569 
L 102.445847 60.147499 
L 117.397582 57.570599 
L 123.5142 57.734584 
L 127.252134 59.678972 
L 128.951195 61.857624 
L 132.349316 64.739066 
L 134.388189 65.933811 
L 137.106686 67.761067 
L 139.825183 71.790401 
L 142.543681 74.976387 
L 145.262178 78.630899 
L 150.699172 87.486065 
L 153.417669 91.374841 
L 157.495415 94.475906 
L 162.93241 90.250375 
L 161.573161 93.623772 
L 165.650907 85.565103 
L 171.087901 72.258929 
L 173.806398 64.481376 
L 176.524896 57.172351 
L 179.243393 49.394799 
L 181.96189 43.303944 
L 184.680387 35.15157 
L 186.71926 26.436963 
L 189.437757 20.814636 
L 191.47663 15.473425 
L 194.195127 10.272773 
L 196.913625 6.805671 
L 200.99137 5.184567 
L 205.069116 7.13364 
L 207.787613 9.757393 
L 210.506111 11.584649 
L 213.224608 14.34896 
L 215.943105 16.551038 
L 219.341226 18.635984 
L 222.739348 21.142605 
L 225.457845 24.422296 
L 230.89484 31.590763 
L 236.331834 35.479539 
L 240.40958 37.344278 
L 247.205823 39.396427 
L 253.322441 41.680497 
L 256.720563 44.100441 
L 259.43906 46.208813 
L 262.157557 48.692008 
L 264.876054 51.83114 
L 267.594552 54.080071 
L 270.313049 55.95418 
L 274.97333 58.102712 
L 288.662905 59.116739 
L 290.701778 60.452042 
L 295.459148 62.982089 
L 303.61464 64.645361 
L 311.770131 65.090462 
L 319.925623 63.731733 
L 326.721866 63.790299 
L 332.15886 66.00409 
L 340.314352 66.51947 
L 348.469843 65.441857 
L 356.625335 65.23102 
L 364.780826 66.074369 
L 372.936318 65.207594 
L 380.412185 63.488099 
L 386.528804 61.646786 
L 394.684296 61.62336 
L 401.189271 63.765199 
L 408.956406 65.843854 
L 416.917719 67.058276 
L 423.908141 65.793253 
L 431.233696 64.255244 
L 431.233696 64.255244 
" clip-path="url(#pe38340021d)" style="fill: none; stroke: #ffe4b5; stroke-opacity: 0.8; stroke-width: 4; stroke-linecap: square"/>
   </g>
   <g id="line2d_27">
    <path d="M -1 65.617805 
L -0.516353 65.918754 
L 2.533607 67.506093 
L 5.595773 68.435184 
L 8.645733 68.516136 
L 11.695694 67.774718 
L 17.795615 64.732896 
L 20.839473 63.468257 
L 23.895536 62.864941 
L 26.945497 62.501082 
L 29.995458 61.842674 
L 33.045418 60.89816 
L 39.157544 59.336342 
L 42.207505 58.754253 
L 45.256245 58.419635 
L 51.354946 58.773756 
L 63.565773 59.79996 
L 66.615733 59.326255 
L 69.665694 58.210746 
L 75.765615 54.21011 
L 78.816796 52.858928 
L 81.866757 52.328884 
L 84.916718 52.655719 
L 87.966678 53.93888 
L 91.017859 55.984439 
L 94.080025 58.380863 
L 100.179946 63.658647 
L 103.229906 65.896315 
L 106.279867 67.538653 
L 109.329828 68.605569 
L 112.378568 69.044454 
L 115.428529 69.062916 
L 121.52845 69.445527 
L 124.591836 69.955198 
L 127.643017 70.858463 
L 130.692977 72.136174 
L 136.79656 75.811372 
L 139.847741 77.93388 
L 142.900143 80.316274 
L 145.937899 82.536 
L 148.9903 84.210981 
L 152.042702 85.424449 
L 155.096324 85.869454 
L 158.148725 85.137433 
L 161.201127 83.361166 
L 164.253529 80.601453 
L 167.30471 76.324508 
L 170.357111 69.600677 
L 173.408292 61.86845 
L 182.561836 35.007354 
L 185.613017 27.90763 
L 188.664198 22.437402 
L 191.715379 18.864486 
L 194.76534 17.236625 
L 197.816521 17.105935 
L 200.866481 17.619398 
L 206.966403 20.975587 
L 210.015143 23.875211 
L 213.065103 26.61297 
L 216.127269 28.154033 
L 222.225969 27.812331 
L 225.27471 27.014976 
L 228.32345 27.75368 
L 231.37219 30.82713 
L 234.434355 36.420395 
L 237.483095 41.261019 
L 240.533056 45.566614 
L 243.581796 46.98403 
L 246.63908 47.120176 
L 249.682938 47.503155 
L 252.731678 47.281166 
L 255.7853 46.939778 
L 258.83404 46.728166 
L 261.888883 45.893414 
L 264.937623 44.6598 
L 267.992466 43.87999 
L 271.046088 43.945993 
L 274.088725 46.007484 
L 277.144788 46.792339 
L 280.192308 48.160007 
L 283.242269 50.712444 
L 286.297111 53.048992 
L 289.345851 55.880964 
L 292.408017 57.700484 
L 295.456757 59.149831 
L 298.504277 60.071197 
L 301.553017 59.694382 
L 304.601757 60.991629 
L 310.711442 62.364487 
L 313.761403 62.652479 
L 316.810143 63.313662 
L 319.858883 64.291005 
L 322.907623 64.843657 
L 325.969788 63.904439 
L 329.020969 62.630347 
L 332.07093 59.877408 
L 335.11967 58.413069 
L 338.16841 57.305074 
L 341.217151 55.875946 
L 344.265891 56.201757 
L 347.328056 57.064693 
L 353.424316 59.1906 
L 356.473056 59.202525 
L 359.521796 58.99701 
L 365.632702 58.366543 
L 371.731403 59.621246 
L 374.781363 58.986431 
L 377.830103 57.698147 
L 380.880064 57.249972 
L 383.942229 57.983539 
L 386.990969 59.455797 
L 390.04093 60.63188 
L 393.095773 61.020937 
L 396.144513 59.799651 
L 399.194473 58.098382 
L 402.243214 56.934236 
L 405.291954 56.329974 
L 408.340694 56.286962 
L 411.402859 57.521098 
L 414.450379 59.055384 
L 417.499119 61.052047 
L 420.547859 62.337226 
L 423.596599 63.331031 
L 426.659985 63.741061 
L 429.708725 63.896375 
L 431.233696 64.086915 
L 431.233696 64.086915 
" clip-path="url(#pe38340021d)" style="fill: none; stroke: #000000; stroke-width: 1.5; stroke-linecap: square"/>
   </g>
   <g id="line2d_28">
    <path d="M 155.096324 98.940472 
L 155.096324 0.72 
" clip-path="url(#pe38340021d)" style="fill: none; stroke: #808000; stroke-width: 1.5; stroke-linecap: square"/>
   </g>
   <g id="line2d_29">
    <path d="M 194.76534 98.940472 
L 194.76534 0.72 
" clip-path="url(#pe38340021d)" style="fill: none; stroke: #ff7f50; stroke-width: 1.5; stroke-linecap: square"/>
   </g>
   <g id="patch_3">
    <path d="M 29.626875 98.940472 
L 29.626875 0.72 
" style="fill: none; stroke: #000000; stroke-width: 0.5; stroke-linejoin: miter; stroke-linecap: square"/>
   </g>
   <g id="patch_4">
    <path d="M 425.059946 98.940472 
L 425.059946 0.72 
" style="fill: none; stroke: #000000; stroke-width: 0.5; stroke-linejoin: miter; stroke-linecap: square"/>
   </g>
   <g id="patch_5">
    <path d="M 29.626875 98.940472 
L 425.059946 98.940472 
" style="fill: none; stroke: #000000; stroke-width: 0.5; stroke-linejoin: miter; stroke-linecap: square"/>
   </g>
   <g id="patch_6">
    <path d="M 29.626875 0.72 
L 425.059946 0.72 
" style="fill: none; stroke: #000000; stroke-width: 0.5; stroke-linejoin: miter; stroke-linecap: square"/>
   </g>
   <g id="legend_1">
    <g id="patch_7">
     <path d="M 355.700883 30.144063 
L 420.159946 30.144063 
Q 421.559946 30.144063 421.559946 28.744063 
L 421.559946 5.62 
Q 421.559946 4.22 420.159946 4.22 
L 355.700883 4.22 
Q 354.300883 4.22 354.300883 5.62 
L 354.300883 28.744063 
Q 354.300883 30.144063 355.700883 30.144063 
z
" style="fill: #ffffff; opacity: 0.8; stroke: #cccccc; stroke-linejoin: miter"/>
    </g>
    <g id="line2d_30">
     <path d="M 355.700883 8.488906 
L 362.700883 8.488906 
L 369.700883 8.488906 
" style="fill: none; stroke: #e9967a; stroke-opacity: 0.8; stroke-width: 4; stroke-linecap: square"/>
    </g>
    <g id="text_15">
     <!-- TESS 2018-19 -->
     <g transform="translate(371.100883 10.938906) scale(0.07 -0.07)">
      <defs>
       <path id="DejaVuSans-54" d="M -19 4666 
L 3928 4666 
L 3928 4134 
L 2272 4134 
L 2272 0 
L 1638 0 
L 1638 4134 
L -19 4134 
L -19 4666 
z
" transform="scale(0.015625)"/>
       <path id="DejaVuSans-45" d="M 628 4666 
L 3578 4666 
L 3578 4134 
L 1259 4134 
L 1259 2753 
L 3481 2753 
L 3481 2222 
L 1259 2222 
L 1259 531 
L 3634 531 
L 3634 0 
L 628 0 
L 628 4666 
z
" transform="scale(0.015625)"/>
       <path id="DejaVuSans-53" d="M 3425 4513 
L 3425 3897 
Q 3066 4069 2747 4153 
Q 2428 4238 2131 4238 
Q 1616 4238 1336 4038 
Q 1056 3838 1056 3469 
Q 1056 3159 1242 3001 
Q 1428 2844 1947 2747 
L 2328 2669 
Q 3034 2534 3370 2195 
Q 3706 1856 3706 1288 
Q 3706 609 3251 259 
Q 2797 -91 1919 -91 
Q 1588 -91 1214 -16 
Q 841 59 441 206 
L 441 856 
Q 825 641 1194 531 
Q 1563 422 1919 422 
Q 2459 422 2753 634 
Q 3047 847 3047 1241 
Q 3047 1584 2836 1778 
Q 2625 1972 2144 2069 
L 1759 2144 
Q 1053 2284 737 2584 
Q 422 2884 422 3419 
Q 422 4038 858 4394 
Q 1294 4750 2059 4750 
Q 2388 4750 2728 4690 
Q 3069 4631 3425 4513 
z
" transform="scale(0.015625)"/>
       <path id="DejaVuSans-2d" d="M 313 2009 
L 1997 2009 
L 1997 1497 
L 313 1497 
L 313 2009 
z
" transform="scale(0.015625)"/>
      </defs>
      <use xlink:href="#DejaVuSans-54"/>
      <use xlink:href="#DejaVuSans-45" x="61.083984"/>
      <use xlink:href="#DejaVuSans-53" x="124.267578"/>
      <use xlink:href="#DejaVuSans-53" x="187.744141"/>
      <use xlink:href="#DejaVuSans-20" x="251.220703"/>
      <use xlink:href="#DejaVuSans-32" x="283.007812"/>
      <use xlink:href="#DejaVuSans-30" x="346.630859"/>
      <use xlink:href="#DejaVuSans-31" x="410.253906"/>
      <use xlink:href="#DejaVuSans-38" x="473.876953"/>
      <use xlink:href="#DejaVuSans-2d" x="537.5"/>
      <use xlink:href="#DejaVuSans-31" x="573.583984"/>
      <use xlink:href="#DejaVuSans-39" x="637.207031"/>
     </g>
    </g>
    <g id="line2d_31">
     <path d="M 355.700883 16.663594 
L 362.700883 16.663594 
L 369.700883 16.663594 
" style="fill: none; stroke: #ffe4b5; stroke-opacity: 0.8; stroke-width: 4; stroke-linecap: square"/>
    </g>
    <g id="text_16">
     <!-- TESS 2020-21 -->
     <g transform="translate(371.100883 19.113594) scale(0.07 -0.07)">
      <use xlink:href="#DejaVuSans-54"/>
      <use xlink:href="#DejaVuSans-45" x="61.083984"/>
      <use xlink:href="#DejaVuSans-53" x="124.267578"/>
      <use xlink:href="#DejaVuSans-53" x="187.744141"/>
      <use xlink:href="#DejaVuSans-20" x="251.220703"/>
      <use xlink:href="#DejaVuSans-32" x="283.007812"/>
      <use xlink:href="#DejaVuSans-30" x="346.630859"/>
      <use xlink:href="#DejaVuSans-32" x="410.253906"/>
      <use xlink:href="#DejaVuSans-30" x="473.876953"/>
      <use xlink:href="#DejaVuSans-2d" x="537.5"/>
      <use xlink:href="#DejaVuSans-32" x="573.583984"/>
      <use xlink:href="#DejaVuSans-31" x="637.207031"/>
     </g>
    </g>
    <g id="line2d_32">
     <path d="M 355.700883 24.838281 
L 362.700883 24.838281 
L 369.700883 24.838281 
" style="fill: none; stroke: #000000; stroke-width: 1.5; stroke-linecap: square"/>
    </g>
    <g id="text_17">
     <!-- simulation -->
     <g transform="translate(371.100883 27.288281) scale(0.07 -0.07)">
      <defs>
       <path id="DejaVuSans-73" d="M 2834 3397 
L 2834 2853 
Q 2591 2978 2328 3040 
Q 2066 3103 1784 3103 
Q 1356 3103 1142 2972 
Q 928 2841 928 2578 
Q 928 2378 1081 2264 
Q 1234 2150 1697 2047 
L 1894 2003 
Q 2506 1872 2764 1633 
Q 3022 1394 3022 966 
Q 3022 478 2636 193 
Q 2250 -91 1575 -91 
Q 1294 -91 989 -36 
Q 684 19 347 128 
L 347 722 
Q 666 556 975 473 
Q 1284 391 1588 391 
Q 1994 391 2212 530 
Q 2431 669 2431 922 
Q 2431 1156 2273 1281 
Q 2116 1406 1581 1522 
L 1381 1569 
Q 847 1681 609 1914 
Q 372 2147 372 2553 
Q 372 3047 722 3315 
Q 1072 3584 1716 3584 
Q 2034 3584 2315 3537 
Q 2597 3491 2834 3397 
z
" transform="scale(0.015625)"/>
       <path id="DejaVuSans-6f" d="M 1959 3097 
Q 1497 3097 1228 2736 
Q 959 2375 959 1747 
Q 959 1119 1226 758 
Q 1494 397 1959 397 
Q 2419 397 2687 759 
Q 2956 1122 2956 1747 
Q 2956 2369 2687 2733 
Q 2419 3097 1959 3097 
z
M 1959 3584 
Q 2709 3584 3137 3096 
Q 3566 2609 3566 1747 
Q 3566 888 3137 398 
Q 2709 -91 1959 -91 
Q 1206 -91 779 398 
Q 353 888 353 1747 
Q 353 2609 779 3096 
Q 1206 3584 1959 3584 
z
" transform="scale(0.015625)"/>
       <path id="DejaVuSans-6e" d="M 3513 2113 
L 3513 0 
L 2938 0 
L 2938 2094 
Q 2938 2591 2744 2837 
Q 2550 3084 2163 3084 
Q 1697 3084 1428 2787 
Q 1159 2491 1159 1978 
L 1159 0 
L 581 0 
L 581 3500 
L 1159 3500 
L 1159 2956 
Q 1366 3272 1645 3428 
Q 1925 3584 2291 3584 
Q 2894 3584 3203 3211 
Q 3513 2838 3513 2113 
z
" transform="scale(0.015625)"/>
      </defs>
      <use xlink:href="#DejaVuSans-73"/>
      <use xlink:href="#DejaVuSans-69" x="52.099609"/>
      <use xlink:href="#DejaVuSans-6d" x="79.882812"/>
      <use xlink:href="#DejaVuSans-75" x="177.294922"/>
      <use xlink:href="#DejaVuSans-6c" x="240.673828"/>
      <use xlink:href="#DejaVuSans-61" x="268.457031"/>
      <use xlink:href="#DejaVuSans-74" x="329.736328"/>
      <use xlink:href="#DejaVuSans-69" x="368.945312"/>
      <use xlink:href="#DejaVuSans-6f" x="396.728516"/>
      <use xlink:href="#DejaVuSans-6e" x="457.910156"/>
     </g>
    </g>
   </g>
  </g>
 </g>
 <defs>
  <clipPath id="pe38340021d">
   <rect x="29.626875" y="0.72" width="395.433071" height="98.220472"/>
  </clipPath>
 </defs>
</svg>
